<?xml version="1.0" encoding="UTF-8"?><svg id="Capa_2" xmlns="http://www.w3.org/2000/svg" viewBox="0 0 1324.7 402.33"><defs><style>.cls-1{fill:#fff;}</style></defs><g id="Capa_1-2"><g><g><polygon class="cls-1" points="177.57 215.35 129.8 215.35 207.75 60.05 177.61 0 0 353.82 60.29 353.82 103.35 268.04 204.04 268.04 177.57 215.35"/><path class="cls-1" d="M312.16,268.69h.02s-.87-1.73-1.23-2.45c-9.78-19.49-76.87-153.2-79.43-158.23l-30.14,60.05c.63,1.25,55.7,110.95,59.63,118.79,3.84,8.09,6.73,16.34,6.73,25.31,0,16.8-7.91,32.16-20.46,42.07,7.18,14.3,18.94,37.74,24.14,48.1,30.01-19.19,49.19-52.91,49.61-90.16,.17-15.11-2.72-29.96-8.87-43.47Z"/></g><g><path class="cls-1" d="M480.2,279.46c-6.23,3.04-12.45,5.43-18.68,7.19-6.23,1.76-12.38,2.64-18.44,2.64h-67.06V112.03h75.45c22.51,2.24,40.32,12.18,53.4,29.82,13.1,17.64,19.65,37.8,19.65,60.48,0,16.77-3.67,32.02-11.01,45.76-7.36,13.73-18.44,24.19-33.31,31.37Zm20.84-90.3c-1.28-13.89-6.66-26.19-16.16-36.89-9.5-10.7-21.12-17.56-34.85-20.6h-53.17v138.45h45.74c18.05,0,32.42-7.19,43.11-21.56,10.71-14.38,16.05-30.74,16.05-49.1,0-3.51-.23-6.95-.72-10.3Z"/><path class="cls-1" d="M653.84,263.18c-6.71,8.94-14.84,15.97-24.44,21.08-9.57,5.11-19.72,7.67-30.41,7.67s-19.97-2.48-29.24-7.42c-8.62-5.6-15.17-12.86-19.63-21.8-4.48-8.94-6.71-18.69-6.71-29.22,0-14.21,4.12-26.95,12.34-38.21,8.22-11.25,16.68-17.56,25.39-18.92,8.69-1.36,14.65-2.04,17.85-2.04,10.2,0,19.76,2.32,28.61,6.95,8.87,4.63,15.37,11.7,19.52,21.2,4.16,9.5,6.23,20.64,6.23,33.41h-90.06c0,10.86,3.42,20.2,10.27,28.02,6.84,7.83,15.44,11.73,25.8,11.73,3.18,0,6.05-.31,8.6-.95,6.37-.96,11.86-3.23,16.48-6.83,4.62-3.59,9.16-8.42,13.62-14.49l15.76,9.82Zm-19.88-41.68c-1.76-8.93-5.99-16.24-12.69-21.92-6.71-5.67-14.61-8.5-23.72-8.5-8.15,0-15.29,3-21.45,8.99-6.14,5.98-10.17,13.14-12.09,21.43h69.94Z"/><path class="cls-1" d="M765.19,196.11l-16.28,9.35c-1.28-4.47-4.52-8.19-9.7-11.14-5.18-2.96-10.74-4.44-16.64-4.44-4.16,0-7.83,.85-11.01,2.52-3.2,1.68-5.33,3.92-6.35,6.73-1.04,2.8-1.57,5.07-1.57,6.84,0,4.17,2.39,8.24,7.2,12.24l37.35,13.21c5.6,2.4,9.82,5.92,12.7,10.56,2.88,4.64,4.3,9.68,4.3,15.12,0,7.04-2.03,13.65-6.1,19.81-4.07,6.16-9.63,10.53-16.64,13.08-2.56,.64-5.47,1.21-8.74,1.68s-6.26,.72-8.98,.72c-8.94,0-17.29-1.81-25.03-5.43-7.76-3.62-14.34-9.05-19.77-16.29l16.77-11.34c2.56,5.34,6.39,9.64,11.5,12.87,5.11,3.23,10.62,4.85,16.54,4.85,5.58,0,10.09-1.2,13.53-3.6,3.44-2.4,5.63-4.56,6.59-6.49,.95-1.92,1.44-3.91,1.44-6,0-3.36-1.12-6.44-3.36-9.24-2.23-2.8-5.34-4.92-9.34-6.37-7.67-2.23-15.69-4.71-24.08-7.44-8.37-2.72-14.41-6.64-18.08-11.76-4.62-5.93-6.95-12.24-6.95-18.97,0-10.4,3.42-17.96,10.24-22.68,6.84-4.72,12.85-7.57,18.08-8.53,5.22-.95,11.35-1.44,18.43-1.44,7.72,.64,14.18,2.72,19.4,6.23,5.22,3.52,10.08,8.63,14.57,15.33Z"/><path class="cls-1" d="M809.12,138.86c-1.6,.32-2.79,.48-3.58,.48-3.83,0-7-1.39-9.46-4.19-2.48-2.79-3.72-6.1-3.72-9.93,0-2.4,.52-4.52,1.57-6.35,1.04-1.84,2.82-3.39,5.38-4.67,1.12-.32,2.45-.72,3.96-1.2,1.51-.49,2.91-.56,4.19-.24,3.67,.48,6.55,2,8.62,4.55,2.09,2.56,3.11,5.43,3.11,8.62,0,6.71-3.35,11.02-10.06,12.94Zm6.48,150.43h-19.88v-110.66h19.88v110.66Z"/><path class="cls-1" d="M961.38,306.06c-3.02,12.61-10.02,22.47-20.94,29.58-10.94,7.1-23.05,10.66-36.29,10.66-8.78,0-17-1.48-24.67-4.44-7.67-2.96-13.69-6.83-18.08-11.61-4.41-4.8-7.36-9.38-8.87-13.77-1.51-4.4-2.52-9.38-2.99-14.97h21.07c0,8.46,3.51,15.12,10.54,20,7.02,4.87,15.33,7.31,24.9,7.31,7.5,0,14.45-1.52,20.84-4.55,6.39-3.03,10.94-7.35,13.66-12.94,.65-2.72,1.21-5.03,1.67-6.95,.49-1.92,.81-3.67,.97-5.26v-28.51c-4.32,6.87-10.15,12.1-17.49,15.69-7.34,3.6-15.17,5.39-23.48,5.39-7.67,0-15.04-1.44-22.15-4.31-7.11-2.87-13.21-7.03-18.32-12.45-5.13-5.43-8.96-11.66-11.5-18.69-2.56-7.03-3.83-14.05-3.83-21.08,0-9.73,2.2-19.16,6.59-28.27,4.39-9.1,10.49-16.6,18.32-22.51,9.43-6.39,19.56-9.58,30.43-9.58,2.39,0,4.95,.23,7.67,.72,6.86,.64,13.28,3.11,19.27,7.42,5.99,4.31,10.81,9.66,14.5,16.05v-21.08h18.19v128.15Zm-21.07-52.7c1.91-6.06,2.88-12.13,2.88-18.2,0-9.26-2.25-17.53-6.73-24.8-4.5-7.26-11.3-12.49-20.42-15.68-4.34-.8-8.17-1.21-11.53-1.21h-3.13c-1.44,.32-4.73,1.04-9.86,2.16-5.13,1.12-10.49,5.63-16.09,13.53-5.61,7.91-8.42,16.73-8.42,26.47,0,5.91,1.24,11.7,3.72,17.36,2.48,5.68,6.14,10.58,10.94,14.74,7.22,5.27,15.22,7.9,24.04,7.9,7.36,0,14.21-1.95,20.53-5.87,6.33-3.91,11.01-9.37,14.07-16.41Z"/><path class="cls-1" d="M1086.87,289.29h-20.37v-77.61c-1.62-5.75-4.75-10.38-9.43-13.89-4.66-3.52-9.99-5.27-15.94-5.27-3.22,0-6.6,.64-10.15,1.92-4.52,2.39-8.42,5.39-11.73,8.98-3.29,3.6-5.67,7.71-7.13,12.33v73.54h-18.91v-111.38h18.91v19.16c4.16-6.86,9.1-12.17,14.86-15.93,5.74-3.75,12.61-5.62,20.58-5.62,10.87,0,19.77,3.31,26.72,9.93,6.95,6.63,11.14,15.54,12.58,26.71v77.13Z"/><path class="cls-1" d="M1227.33,263.18c-6.71,8.94-14.84,15.97-24.44,21.08-9.57,5.11-19.72,7.67-30.41,7.67s-19.97-2.48-29.24-7.42c-8.62-5.6-15.17-12.86-19.63-21.8-4.48-8.94-6.71-18.69-6.71-29.22,0-14.21,4.12-26.95,12.34-38.21,8.22-11.25,16.68-17.56,25.39-18.92,8.69-1.36,14.65-2.04,17.85-2.04,10.2,0,19.76,2.32,28.61,6.95,8.87,4.63,15.37,11.7,19.52,21.2,4.16,9.5,6.23,20.64,6.23,33.41h-90.06c0,10.86,3.42,20.2,10.27,28.02,6.84,7.83,15.44,11.73,25.8,11.73,3.18,0,6.05-.31,8.6-.95,6.37-.96,11.86-3.23,16.48-6.83,4.62-3.59,9.16-8.42,13.62-14.49l15.76,9.82Zm-19.88-41.68c-1.76-8.93-5.99-16.24-12.69-21.92-6.71-5.67-14.61-8.5-23.72-8.5-8.15,0-15.29,3-21.45,8.99-6.14,5.98-10.17,13.14-12.09,21.43h69.94Z"/><path class="cls-1" d="M1324.7,182.69l-11.5,15.82c-4.16-3.68-8.46-5.52-12.94-5.52-6.23,0-11.89,3.08-17,9.22-5.11,6.15-8.46,12.9-10.06,20.24v66.83h-19.4v-110.43h17.96v27.07c2.07-7.34,5.79-14.02,11.14-20,5.34-5.99,11.53-9.46,18.57-10.42,8.29,0,16.05,2.39,23.23,7.18Z"/></g></g></g></svg>