<svg id="behance" xmlns="http://www.w3.org/2000/svg" width="40.966" height="39.942" viewBox="0 0 40.966 39.942">
  <path id="Trazado_9" data-name="Trazado 9" d="M12.173,10.4c0-1.618-1.253-2-2.644-2H5.909v4.1h3.9C11.194,12.5,12.173,11.892,12.173,10.4Z" transform="translate(4.177 5.426)" fill="#fff"/>
  <path id="Trazado_10" data-name="Trazado 10" d="M17.866,10.816a2.726,2.726,0,0,0-2.9,2.716h5.687C20.5,11.84,19.623,10.816,17.866,10.816Z" transform="translate(10.581 7.134)" fill="#fff"/>
  <path id="Trazado_11" data-name="Trazado 11" d="M10.11,12.509H5.9v4.837h4.124c1.574,0,2.854-.558,2.854-2.323C12.88,13.222,11.81,12.518,10.11,12.509Z" transform="translate(4.174 8.331)" fill="#fff"/>
  <path id="Trazado_12" data-name="Trazado 12" d="M33.711.3H7.254A7.248,7.248,0,0,0,0,7.554V32.987a7.248,7.248,0,0,0,7.254,7.254H33.711a7.248,7.248,0,0,0,7.254-7.254V7.554A7.248,7.248,0,0,0,33.711.3ZM24.844,12.05h7.114v1.727H24.844V12.05ZM14.731,28.976H6.218V11.419h8.275c3.009,0,5.614.85,5.614,4.342,0,1.765-.823,2.634-2.4,3.383a4.548,4.548,0,0,1,3.2,4.72C20.913,27.431,17.923,28.957,14.731,28.976Zm19.99-5.807H25.558c0,2.03,1.07,3.228,3.119,3.228a2.892,2.892,0,0,0,2.762-1.656h3.081a5.669,5.669,0,0,1-5.952,4.279c-4,0-6.5-2.716-6.5-6.676a6.382,6.382,0,0,1,6.5-6.729c3.977,0,6.181,3.136,6.181,6.894C34.748,22.73,34.729,22.959,34.72,23.169Z" transform="translate(0 -0.3)" fill="#fff"/>
</svg>
