<svg id="instagram" xmlns="http://www.w3.org/2000/svg" width="38.205" height="38.205" viewBox="0 0 38.205 38.205">
  <path id="Trazado_35" data-name="Trazado 35" d="M19.1,3.442c5.1,0,5.705.019,7.719.111A8.427,8.427,0,0,1,32.565,5.64a8.372,8.372,0,0,1,2.087,5.743c.092,2.014.111,2.619.111,7.719s-.019,5.705-.111,7.719a8.468,8.468,0,0,1-2.087,5.743,8.37,8.37,0,0,1-5.743,2.087c-2.014.092-2.619.111-7.719.111s-5.705-.019-7.719-.111A8.529,8.529,0,0,1,5.64,32.565a8.419,8.419,0,0,1-2.087-5.743c-.092-2.014-.111-2.619-.111-7.719s.019-5.705.111-7.719A8.5,8.5,0,0,1,5.64,5.64a8.39,8.39,0,0,1,5.743-2.087C13.4,3.461,14,3.442,19.1,3.442M19.1,0c-5.188,0-5.839.022-7.877.115a11.806,11.806,0,0,0-8.02,3.091,11.786,11.786,0,0,0-3.091,8.02C.022,13.263,0,13.915,0,19.1s.022,5.839.115,7.877A11.818,11.818,0,0,0,3.206,35a11.8,11.8,0,0,0,8.02,3.091c2.038.092,2.689.115,7.877.115s5.839-.022,7.877-.115A11.813,11.813,0,0,0,35,35a11.781,11.781,0,0,0,3.091-8.02c.092-2.038.115-2.689.115-7.877s-.022-5.839-.115-7.877A11.81,11.81,0,0,0,35,3.206,11.807,11.807,0,0,0,26.979.115C24.941.022,24.29,0,19.1,0Z" transform="translate(0 0)" fill="#fff"/>
  <path id="Trazado_36" data-name="Trazado 36" d="M15.647,5.838a9.809,9.809,0,1,0,9.809,9.809A9.809,9.809,0,0,0,15.647,5.838Zm0,16.177a6.367,6.367,0,1,1,6.367-6.367A6.368,6.368,0,0,1,15.647,22.015Z" transform="translate(3.455 3.455)" fill="#fff"/>
  <circle id="Elipse_1" data-name="Elipse 1" cx="2.292" cy="2.292" r="2.292" transform="translate(27.008 6.613)" fill="#fff"/>
</svg>
