<svg id="Grupo_35" data-name="Grupo 35" xmlns="http://www.w3.org/2000/svg" xmlns:xlink="http://www.w3.org/1999/xlink" width="37.874" height="38.053" viewBox="0 0 37.874 38.053">
  <defs>
    <clipPath id="clip-path">
      <rect id="Rectángulo_29" data-name="Rectángulo 29" width="37.874" height="38.053" fill="none"/>
    </clipPath>
  </defs>
  <g id="Grupo_34" data-name="Grupo 34" clip-path="url(#clip-path)">
    <path id="Trazado_39" data-name="Trazado 39" d="M32.358,5.531A18.861,18.861,0,0,0,2.676,28.283L0,38.054l10-2.622a18.835,18.835,0,0,0,9.011,2.3h.008a18.866,18.866,0,0,0,13.345-32.2M19.016,34.542H19.01a15.634,15.634,0,0,1-7.977-2.181l-.572-.339L4.528,33.574,6.114,27.79,5.742,27.2a15.672,15.672,0,1,1,13.274,7.347m5.121-15.606a.437.437,0,0,1-.095-.1,10.382,10.382,0,0,0,1.037-1.291,4.457,4.457,0,0,0-3.285-6.755,75.119,75.119,0,0,0-7.64-.1c-.671,0-1.031.481-1.036,1.209q-.049,7.1-.081,14.2c0,.906.41,1.3,1.331,1.3,1.415,0,2.83.008,4.245-.009,1.135-.014,2.276.014,3.4-.109A4.366,4.366,0,0,0,25.963,23.9c.462-2,.025-3.924-1.827-4.966m-7.7-4.852c0-.351.135-.506.5-.5,1.17.009,2.342-.032,3.511.008a1.871,1.871,0,0,1,1.9,2.482,1.515,1.515,0,0,1-1.388,1.293,11.026,11.026,0,0,1-1.149.062c-.367.009-.734,0-1.1,0v.005c-.594,0-1.188-.011-1.782,0-.379.009-.538-.143-.527-.526q.036-1.414.037-2.828M21.11,24.4c-1.477.11-2.965.071-4.448.067-.106,0-.3-.24-.3-.371-.019-1.1,0-2.2,0-3.3,0-.331.183-.41.469-.408.7.005,1.4,0,2.1,0v0c.646,0,1.293-.018,1.938,0a1.886,1.886,0,0,1,1.972,1.889A1.877,1.877,0,0,1,21.11,24.4" transform="translate(0 0)" fill="#fff" fill-rule="evenodd"/>
  </g>
</svg>
